<svg width="92" height="25" viewBox="0 0 92 25" fill="none" xmlns="http://www.w3.org/2000/svg">
<path d="M19.116 19.21C18.01 19.21 17.163 18.895 16.575 18.265C16.001 17.635 15.714 16.746 15.714 15.598V7.702C15.714 6.554 16.001 5.665 16.575 5.035C17.163 4.405 18.01 4.09 19.116 4.09C20.222 4.09 21.062 4.405 21.636 5.035C22.224 5.665 22.518 6.554 22.518 7.702V9.256H20.334V7.555C20.334 6.645 19.949 6.19 19.179 6.19C18.409 6.19 18.024 6.645 18.024 7.555V15.766C18.024 16.662 18.409 17.11 19.179 17.11C19.949 17.11 20.334 16.662 20.334 15.766V13.519H22.518V15.598C22.518 16.746 22.224 17.635 21.636 18.265C21.062 18.895 20.222 19.21 19.116 19.21ZM27.2801 19.21C26.1461 19.21 25.2781 18.888 24.6761 18.244C24.0741 17.6 23.7731 16.69 23.7731 15.514V7.786C23.7731 6.61 24.0741 5.7 24.6761 5.056C25.2781 4.412 26.1461 4.09 27.2801 4.09C28.4141 4.09 29.2821 4.412 29.8841 5.056C30.4861 5.7 30.7871 6.61 30.7871 7.786V15.514C30.7871 16.69 30.4861 17.6 29.8841 18.244C29.2821 18.888 28.4141 19.21 27.2801 19.21ZM27.2801 17.11C28.0781 17.11 28.4771 16.627 28.4771 15.661V7.639C28.4771 6.673 28.0781 6.19 27.2801 6.19C26.4821 6.19 26.0831 6.673 26.0831 7.639V15.661C26.0831 16.627 26.4821 17.11 27.2801 17.11ZM32.3493 4.3H35.8773C37.0253 4.3 37.8863 4.608 38.4603 5.224C39.0343 5.84 39.3213 6.743 39.3213 7.933V15.367C39.3213 16.557 39.0343 17.46 38.4603 18.076C37.8863 18.692 37.0253 19 35.8773 19H32.3493V4.3ZM35.8353 16.9C36.2133 16.9 36.5003 16.788 36.6963 16.564C36.9063 16.34 37.0113 15.976 37.0113 15.472V7.828C37.0113 7.324 36.9063 6.96 36.6963 6.736C36.5003 6.512 36.2133 6.4 35.8353 6.4H34.6593V16.9H35.8353ZM40.8805 4.3H47.1805V6.4H43.1905V10.285H46.3615V12.385H43.1905V16.9H47.1805V19H40.8805V4.3ZM48.5094 4.3H51.9324C53.1224 4.3 53.9904 4.58 54.5364 5.14C55.0824 5.686 55.3554 6.533 55.3554 7.681V8.584C55.3554 10.11 54.8514 11.076 53.8434 11.482V11.524C54.4034 11.692 54.7954 12.035 55.0194 12.553C55.2574 13.071 55.3764 13.764 55.3764 14.632V17.215C55.3764 17.635 55.3904 17.978 55.4184 18.244C55.4464 18.496 55.5164 18.748 55.6284 19H53.2764C53.1924 18.762 53.1364 18.538 53.1084 18.328C53.0804 18.118 53.0664 17.74 53.0664 17.194V14.506C53.0664 13.834 52.9544 13.365 52.7304 13.099C52.5204 12.833 52.1494 12.7 51.6174 12.7H50.8194V19H48.5094V4.3ZM51.6594 10.6C52.1214 10.6 52.4644 10.481 52.6884 10.243C52.9264 10.005 53.0454 9.606 53.0454 9.046V7.912C53.0454 7.38 52.9474 6.995 52.7514 6.757C52.5694 6.519 52.2754 6.4 51.8694 6.4H50.8194V10.6H51.6594ZM59.0162 11.482L56.4752 4.3H58.9112L60.4652 9.046H60.5072L62.1032 4.3H64.2872L61.7462 11.482L64.4132 19H61.9772L60.2972 13.876H60.2552L58.5332 19H56.3492L59.0162 11.482ZM65.5104 4.3H68.8074L70.2774 14.821H70.3194L71.7894 4.3H75.0864V19H72.9024V7.87H72.8604L71.1804 19H69.2484L67.5684 7.87H67.5264V19H65.5104V4.3ZM76.8102 4.3H83.1102V6.4H79.1202V10.285H82.2912V12.385H79.1202V16.9H83.1102V19H76.8102V4.3Z" fill="#0A0A0A"/>
<circle cx="5" cy="11" r="5" fill="#FF8080"/>
</svg>
